<?xml version="1.0" encoding="UTF-8" standalone="no"?>
<!-- Created with Inkscape (http://www.inkscape.org/) -->

<svg
   version="1.1"
   id="svg182"
   width="113.33333"
   height="109.33333"
   viewBox="0 0 113.33333 109.33333"
   sodipodi:docname="Chess.svg"
   inkscape:version="1.2.1 (9c6d41e410, 2022-07-14)"
   xmlns:inkscape="http://www.inkscape.org/namespaces/inkscape"
   xmlns:sodipodi="http://sodipodi.sourceforge.net/DTD/sodipodi-0.dtd"
   xmlns:xlink="http://www.w3.org/1999/xlink"
   xmlns="http://www.w3.org/2000/svg"
   xmlns:svg="http://www.w3.org/2000/svg">
  <defs
     id="defs186">
    <linearGradient
       inkscape:collect="always"
       id="linearGradient2458">
      <stop
         style="stop-color:#ffffff;stop-opacity:0.10837439;"
         offset="0"
         id="stop2456" />
      <stop
         style="stop-color:#ffd700;stop-opacity:1;"
         offset="0.56779662"
         id="stop2454" />
    </linearGradient>
    <linearGradient
       inkscape:collect="always"
       id="linearGradient2450">
      <stop
         style="stop-color:#ffffff;stop-opacity:0.10837439;"
         offset="0"
         id="stop2448" />
      <stop
         style="stop-color:#ffd700;stop-opacity:1;"
         offset="0.56779662"
         id="stop2446" />
    </linearGradient>
    <linearGradient
       inkscape:collect="always"
       id="linearGradient2434">
      <stop
         style="stop-color:#ffd700;stop-opacity:1;"
         offset="0.43220338"
         id="stop2430" />
      <stop
         style="stop-color:#ffffff;stop-opacity:0.10837439;"
         offset="1"
         id="stop2432" />
    </linearGradient>
    <inkscape:path-effect
       effect="bspline"
       id="path-effect1025"
       is_visible="true"
       lpeversion="1"
       weight="33.333333"
       steps="2"
       helper_size="0"
       apply_no_weight="true"
       apply_with_weight="true"
       only_selected="false" />
    <inkscape:path-effect
       effect="bspline"
       id="path-effect988"
       is_visible="true"
       lpeversion="1"
       weight="33.333333"
       steps="2"
       helper_size="0"
       apply_no_weight="true"
       apply_with_weight="true"
       only_selected="false" />
    <inkscape:path-effect
       effect="bspline"
       id="path-effect984"
       is_visible="true"
       lpeversion="1"
       weight="33.333333"
       steps="2"
       helper_size="0"
       apply_no_weight="true"
       apply_with_weight="true"
       only_selected="false" />
    <inkscape:path-effect
       effect="bspline"
       id="path-effect980"
       is_visible="true"
       lpeversion="1"
       weight="33.333333"
       steps="2"
       helper_size="0"
       apply_no_weight="true"
       apply_with_weight="true"
       only_selected="false" />
    <inkscape:path-effect
       effect="bspline"
       id="path-effect976"
       is_visible="true"
       lpeversion="1"
       weight="33.333333"
       steps="2"
       helper_size="0"
       apply_no_weight="true"
       apply_with_weight="true"
       only_selected="false" />
    <inkscape:path-effect
       effect="bspline"
       id="path-effect968"
       is_visible="true"
       lpeversion="1"
       weight="33.333333"
       steps="2"
       helper_size="0"
       apply_no_weight="true"
       apply_with_weight="true"
       only_selected="false" />
    <inkscape:path-effect
       effect="bspline"
       id="path-effect922"
       is_visible="true"
       lpeversion="1"
       weight="33.333333"
       steps="2"
       helper_size="0"
       apply_no_weight="true"
       apply_with_weight="true"
       only_selected="false" />
    <inkscape:path-effect
       effect="bspline"
       id="path-effect922-9"
       is_visible="true"
       lpeversion="1"
       weight="33.333333"
       steps="2"
       helper_size="0"
       apply_no_weight="true"
       apply_with_weight="true"
       only_selected="false" />
    <inkscape:path-effect
       effect="bspline"
       id="path-effect922-4"
       is_visible="true"
       lpeversion="1"
       weight="33.333333"
       steps="2"
       helper_size="0"
       apply_no_weight="true"
       apply_with_weight="true"
       only_selected="false" />
    <inkscape:path-effect
       effect="bspline"
       id="path-effect980-0"
       is_visible="true"
       lpeversion="1"
       weight="33.333333"
       steps="2"
       helper_size="0"
       apply_no_weight="true"
       apply_with_weight="true"
       only_selected="false" />
    <inkscape:path-effect
       effect="bspline"
       id="path-effect1025-1"
       is_visible="true"
       lpeversion="1"
       weight="33.333333"
       steps="2"
       helper_size="0"
       apply_no_weight="true"
       apply_with_weight="true"
       only_selected="false" />
    <linearGradient
       inkscape:collect="always"
       xlink:href="#linearGradient2434"
       id="linearGradient851"
       x1="35.87989"
       y1="55.41243"
       x2="75.863907"
       y2="55.41243"
       gradientUnits="userSpaceOnUse"
       spreadMethod="repeat" />
    <linearGradient
       inkscape:collect="always"
       xlink:href="#linearGradient2450"
       id="linearGradient853"
       x1="66.536636"
       y1="64.763969"
       x2="80.720589"
       y2="64.763969"
       gradientUnits="userSpaceOnUse" />
    <linearGradient
       inkscape:collect="always"
       xlink:href="#linearGradient2458"
       id="linearGradient855"
       x1="68.585831"
       y1="74.170609"
       x2="108.61829"
       y2="74.170609"
       gradientUnits="userSpaceOnUse" />
    <linearGradient
       inkscape:collect="always"
       xlink:href="#linearGradient2434"
       id="linearGradient857"
       x1="31.366102"
       y1="65.028778"
       x2="45.550053"
       y2="65.028778"
       gradientUnits="userSpaceOnUse" />
    <linearGradient
       inkscape:collect="always"
       xlink:href="#linearGradient2434"
       id="linearGradient859"
       x1="4.0735526"
       y1="74.031975"
       x2="44.106014"
       y2="74.031975"
       gradientUnits="userSpaceOnUse" />
  </defs>
  <sodipodi:namedview
     id="namedview184"
     pagecolor="#505050"
     bordercolor="#eeeeee"
     borderopacity="1"
     inkscape:showpageshadow="0"
     inkscape:pageopacity="0"
     inkscape:pagecheckerboard="0"
     inkscape:deskcolor="#505050"
     showgrid="false"
     inkscape:zoom="3.5053527"
     inkscape:cx="53.346986"
     inkscape:cy="43.932812"
     inkscape:window-width="1366"
     inkscape:window-height="745"
     inkscape:window-x="-8"
     inkscape:window-y="-8"
     inkscape:window-maximized="1"
     inkscape:current-layer="g188" />
  <g
     inkscape:groupmode="layer"
     inkscape:label="Image"
     id="g188">
    <path
       style="opacity:0.566372;fill:none;fill-rule:evenodd;stroke-width:46.2274"
       d="m 129.61581,5.4134428 c 0.80649,1.1425205 -1.61417,3.5631842 -1.61417,3.5631842 0,0 -7.06027,-3.8327177 -7.06027,-3.8327177 0,0 0.40344,11.6998767 0.40344,11.6998767 0,0 6.05166,-4.236162 6.05166,-4.236162 0,0 2.82411,0 2.82411,0 0,0 -0.40344,3.02583 -0.40344,3.02583 0,0 -4.23617,6.253382 -4.23617,6.253382 0,0 -10.28782,6.05166 -10.28782,6.05166 0,0 9.68266,13.515375 9.68266,13.515375 -0.73965,0.470685 -1.47904,0.941208 -2.01716,1.412072 -0.53813,0.470865 -0.87432,0.941542 -0.97504,1.681661 -0.10072,0.740118 0.0338,1.748709 0.50493,2.555465 0.47118,0.806757 1.27806,1.411915 1.95046,1.747767 0.67241,0.335852 1.20921,0.402952 1.74714,0.470193 0,0 -2.01722,12.910208 -2.01722,12.910208 -1.27757,4.841328 -2.55533,9.683346 -3.53032,13.549733 -0.97499,3.866387 -1.64738,6.757677 -2.3198,8.741059 -0.67241,1.983381 -1.3448,3.059209 -1.94961,3.69776 -0.60481,0.638551 -1.14273,0.840272 -1.6805,0.974802 -0.53778,0.134531 -1.07569,0.201769 -1.54631,0.235444 -0.47062,0.03367 -0.87406,0.03367 -0.60499,0.302981 0.26906,0.269306 1.20923,0.806544 2.1506,1.344469 0.40344,0.134481 0.80808,0.269361 1.14393,0.673216 0.33585,0.403855 0.60481,1.076246 0.7727,2.05117 0.16789,0.974924 0.23513,2.252473 0.87447,3.29457 0.63935,1.042097 1.8485,1.848202 3.05883,2.65509 0,0.268959 0,0.538929 0,1.043239 0,0.50431 0,1.24394 -0.10096,1.88251 -0.10097,0.63857 -0.30268,1.17648 -0.47079,1.64719 -0.1681,0.47072 -0.30258,0.87415 3.83342,1.21008 4.136,0.33592 12.53989,0.60485 20.94498,0.87381 -0.47069,-1.14309 -0.94088,-2.28498 -1.17647,-3.2937 -0.23559,-1.00872 -0.23559,-1.88284 -0.0676,-2.79081 0.16801,-0.907969 0.5042,-1.84932 0.84077,-2.387636 0.33657,-0.538316 0.67277,-0.672796 1.2446,-0.706266 0.57184,-0.03347 1.37762,0.03368 2.18451,0.100919 0,-0.336203 0,-0.671407 -0.0336,-1.276545 -0.0336,-0.605137 -0.10082,-1.479252 -0.13448,-2.18532 -0.0337,-0.706067 -0.0337,-1.243982 0.26905,-1.715248 0.3027,-0.471265 0.90786,-0.874704 1.81574,-1.345419 0.90787,-0.470715 2.11772,-1.008423 3.32805,-1.546348 -0.87413,-0.134481 -1.74713,-0.268789 -2.62126,-0.638311 -0.87414,-0.369521 -1.74825,-0.974674 -2.45449,-1.714139 -0.70624,-0.739466 -1.24416,-1.61358 -2.2866,-4.84118 -1.04244,-3.227601 -2.58894,-8.808463 -3.66486,-13.212779 -1.07591,-4.404316 -1.68107,-7.631803 -2.11819,-10.758558 -0.43713,-3.126754 -0.70608,-6.152525 -0.60503,-7.766946 0.10106,-1.614421 0.57126,-1.815933 1.04194,-2.017655 0.73965,-0.806888 1.47925,-1.613729 1.78193,-2.520955 0.30268,-0.907225 0.1682,-1.915815 -0.43646,-2.722932 -0.60465,-0.807117 -1.68048,-1.412271 -2.25272,-1.647755 -0.57224,-0.235484 -0.63929,-0.101387 -0.70653,0.03309 0,0 9.88438,-14.322263 9.88438,-14.322263 0,0 -10.0861,-5.849938 -10.0861,-5.849938 0,0 -4.43788,-5.648216 -4.43788,-5.648216 0,0 -0.20172,-2.824108 -0.20172,-2.824108 0,0 3.22755,0 3.22755,0 0,0 6.25338,3.832718 6.25338,3.832718 0,0 0,-11.9015987 0,-11.9015987 0,0 -6.85855,4.0344397 -6.85855,4.0344397 0,0 -3.02583,-2.2189417 -3.02583,-2.2189417 0,0 4.23616,-6.6568262 4.23616,-6.6568262 0,0 -12.10332,-0.201722 -12.10332,-0.201722 1.61378,2.2861827 3.22836,4.5735072 4.03484,5.7160277 z"
       id="path920-7"
       inkscape:path-effect="#path-effect922-9"
       inkscape:original-d="m 130.4223,6.5559633 c 0,0 -2.42066,2.4206637 -2.42066,2.4206637 0,0 -7.06027,-3.8327177 -7.06027,-3.8327177 0,0 0.40344,11.6998767 0.40344,11.6998767 0,0 6.05166,-4.236162 6.05166,-4.236162 0,0 2.82411,0 2.82411,0 0,0 -0.40344,3.02583 -0.40344,3.02583 0,0 -4.23617,6.253382 -4.23617,6.253382 0,0 -10.28782,6.05166 -10.28782,6.05166 0,0 9.68266,13.515375 9.68266,13.515375 0,0 -1.4783,0.942369 -2.21894,1.412054 -0.33521,0.471694 -0.67141,0.942369 -1.00861,1.412054 0.13548,1.00963 0.26996,2.01822 0.40344,3.02583 0.8079,0.606178 1.61478,1.211332 2.42066,1.815498 0.53894,0.06824 1.61378,0.201722 1.61378,0.201722 0,0 -2.01722,12.910208 -2.01722,12.910208 0,0 -2.55415,9.683657 -3.83272,14.523985 -0.67142,2.892407 -1.34381,5.783698 -2.01722,8.674046 -0.67142,1.076873 -1.34381,2.152702 -2.01722,3.227553 -0.53693,0.202726 -1.07485,0.404444 -1.61377,0.605166 -0.53694,0.06824 -1.07485,0.135481 -1.61378,0.201722 -0.40245,0.001 -0.80589,0.001 -1.21033,0 0.94239,0.538936 2.82411,1.613776 2.82411,1.613776 0,0 0.80788,0.269962 1.21033,0.403444 0.26997,0.67342 0.53892,1.345813 0.80689,2.01722 0.0682,1.278598 0.13548,2.556145 0.20172,3.832718 1.21135,0.807904 3.63099,2.420664 3.63099,2.420664 0,0 0.001,0.538929 0,0.806889 0.001,0.74066 0.001,1.48029 0,2.21894 -0.20072,0.53894 -0.40244,1.07685 -0.60516,1.61378 -0.13349,0.40445 -0.26797,0.80788 -0.40345,1.21033 8.40625,0.26997 25.21526,0.80689 25.21526,0.80689 0,0 -0.94038,-2.28519 -1.41206,-3.42928 10e-4,-0.87314 10e-4,-1.74726 0,-2.62238 0.33721,-0.940389 0.67341,-1.881739 1.00861,-2.824111 0.33721,-0.133484 0.67341,-0.267963 1.00861,-0.403444 0.80791,0.06824 2.42066,0.201722 2.42066,0.201722 0,0 0.001,-0.671407 0,-1.00861 -0.0662,-0.873146 -0.13348,-1.747258 -0.20172,-2.622386 0.001,-0.536936 0.001,-1.074851 0,-1.613776 0.60618,-0.402452 1.21134,-0.805888 1.8155,-1.210332 1.21136,-0.536937 3.631,-1.613776 3.631,-1.613776 0,0 -1.74726,-0.267963 -2.62239,-0.403444 -0.87315,-0.604179 -1.74726,-1.209333 -2.62239,-1.815499 -0.53693,-0.873146 -1.07485,-1.747257 -1.61377,-2.622386 -1.54557,-5.580087 -3.09207,-11.160951 -4.63961,-16.742926 -0.60418,-3.226617 -1.20933,-6.454105 -1.8155,-9.682657 -0.26796,-3.02489 -0.53692,-6.05066 -0.80688,-9.07749 0.47169,-0.200726 1.41205,-0.605166 1.41205,-0.605166 0,0 1.48029,-1.612776 2.21894,-2.420664 -0.13348,-1.00763 -0.26796,-2.01622 -0.40344,-3.02583 -1.07487,-0.604178 -2.1507,-1.209332 -3.22755,-1.815498 -0.0662,0.135484 -0.20173,0.403444 -0.20173,0.403444 0,0 9.88438,-14.322263 9.88438,-14.322263 0,0 -10.0861,-5.849938 -10.0861,-5.849938 0,0 -4.43788,-5.648216 -4.43788,-5.648216 0,0 -0.20172,-2.824108 -0.20172,-2.824108 0,0 3.22755,0 3.22755,0 0,0 6.25338,3.832718 6.25338,3.832718 0,0 0,-11.9015987 0,-11.9015987 0,0 -6.85855,4.0344397 -6.85855,4.0344397 0,0 -3.02583,-2.2189417 -3.02583,-2.2189417 0,0 4.23616,-6.6568262 4.23616,-6.6568262 0,0 -12.10332,-0.201722 -12.10332,-0.201722 0,0 3.22856,4.5733655 4.84133,6.8585482 z" />
    <path
       style="opacity:1;fill:url(#linearGradient851);fill-opacity:1;fill-rule:evenodd;stroke-width:46.2274"
       d="m 54.515918,9.0275678 c 0,0 -2.82411,3.0258302 -2.82411,3.0258302 0,0 -6.85855,-5.0430499 -6.85855,-5.0430499 0,0 0.40344,12.3050429 0.40344,12.3050429 0,0 6.45511,-4.236162 6.45511,-4.236162 0,0 2.82411,1.815498 2.82411,1.815498 0,0 -4.03444,6.858548 -4.03444,6.858548 0,0 -10.89299,6.858548 -10.89299,6.858548 0,0 9.68265,13.918819 9.68265,13.918819 -0.605163,0.201722 -1.20973,0.403245 -1.848499,0.604972 -0.638769,0.201727 -1.311168,0.403447 -1.64769,0.841114 -0.336521,0.437666 -0.336521,1.110059 -0.302846,1.782515 0.03368,0.672456 0.100914,1.344853 0.403945,1.949979 0.303032,0.605126 0.840948,1.143045 1.479846,1.54621 0.638898,0.403166 1.378528,0.672121 1.815492,0.874125 0.436963,0.202004 0.571442,0.336484 0.06655,3.429506 -0.504891,3.093023 -1.64781,9.14378 -2.7909,15.19544 -1.546537,5.849938 -3.093256,11.700565 -4.169111,15.129652 -1.075855,3.429088 -1.681008,4.437675 -2.252199,5.042595 -0.571191,0.60492 -1.109102,0.806638 -1.74772,0.941181 -0.638618,0.134543 -1.378248,0.201782 -1.882509,0.235444 -0.504261,0.03366 -0.773211,0.03366 -0.167931,0.403793 0.605279,0.370132 2.083343,1.109163 3.56264,1.84881 0.268963,0.403444 0.538694,0.808039 0.740163,1.312356 0.201468,0.504318 0.335946,1.109473 0.403056,1.849046 0.06711,0.739574 0.06711,1.613684 0.03342,2.252379 -0.03369,0.638691 -0.100792,1.041331 -0.168032,1.444771 0.87413,-0.0672 1.749178,-0.13455 2.387809,0.23591 0.638631,0.37047 1.042065,1.17734 1.277169,1.88332 0.235105,0.70598 0.302344,1.31114 0.335903,1.9835 0.03356,0.67237 0.03356,1.412 -0.134615,2.01677 -0.168175,0.60477 -0.504371,1.07544 3.261743,1.24344 3.766114,0.16799 11.632134,0.0335 19.499291,-0.10095 -0.20172,-1.07585 -0.403225,-2.15055 -0.437028,-3.02488 -0.0338,-0.87432 0.100674,-1.54671 0.268758,-2.21919 0.168085,-0.67248 0.369803,-1.34487 0.605247,-1.81588 0.235443,-0.47101 0.504398,-0.73996 1.110102,-0.84079 0.605704,-0.10082 1.545994,-0.0337 2.487361,0.0336 -0.06724,-1.546535 -0.134435,-3.092029 0.100843,-4.201967 0.235278,-1.109938 0.773192,-1.782329 1.311206,-2.353971 0.538014,-0.571642 1.075931,-1.042321 1.748664,-1.378583 0.672733,-0.336262 1.479603,-0.537979 1.177255,-0.873899 C 75.496178,91.46502 74.084148,90.994343 73.075307,90.288688 72.066466,89.583033 71.46131,88.64168 70.856001,87.397736 70.250691,86.153791 69.645537,84.607289 68.80492,81.547774 67.964302,78.488259 66.888473,73.915985 66.148769,70.284939 65.409065,66.653893 65.00563,63.964319 64.635797,61.409146 64.265963,58.853973 63.929766,56.433357 63.627303,54.819614 63.324839,53.205872 63.055481,52.3978 62.786518,51.590912 c 0.739647,-0.06724 1.480192,-0.134563 2.017571,-0.504152 0.537379,-0.36959 0.873576,-1.041984 1.108965,-1.915892 0.235389,-0.873908 0.369866,-1.949738 0.168694,-2.756561 -0.201172,-0.806823 -0.739089,-1.344741 -1.344182,-1.68133 -0.605094,-0.336588 -1.278641,-0.471298 -1.951048,-0.605779 0,0 10.0861,-14.120541 10.0861,-14.120541 0,0 -9.88438,-6.455104 -9.88438,-6.455104 0,0 -4.84133,-6.253382 -4.84133,-6.253382 0,0 2.21894,-2.420664 2.21894,-2.420664 0,0 7.262,4.437884 7.262,4.437884 0,0 0,-12.1033208 0,-12.1033208 0,0 -6.85855,4.2361618 -6.85855,4.2361618 0,0 -2.82411,-2.01722 -2.82411,-2.01722 0,0 4.63961,-7.261992 4.63961,-7.261992 0,0 -12.30505,0.403444 -12.30505,0.403444 0,0 4.23617,6.4551038 4.23617,6.4551038 z"
       id="path966"
       inkscape:path-effect="#path-effect968"
       inkscape:original-d="m 54.515918,9.0275678 c 0,0 -2.82411,3.0258302 -2.82411,3.0258302 0,0 -6.85855,-5.0430499 -6.85855,-5.0430499 0,0 0.40344,12.3050429 0.40344,12.3050429 0,0 6.45511,-4.236162 6.45511,-4.236162 0,0 2.82411,1.815498 2.82411,1.815498 0,0 -4.03444,6.858548 -4.03444,6.858548 0,0 -10.89299,6.858548 -10.89299,6.858548 0,0 9.68265,13.918819 9.68265,13.918819 0,0 -1.20933,0.404444 -1.81549,0.605166 -0.67142,0.202726 -1.34382,0.404444 -2.01722,0.605166 10e-4,0.67342 10e-4,1.345813 0,2.01722 0.0682,0.67342 0.13548,1.345813 0.20172,2.01722 0.53893,0.538936 1.07685,1.076851 1.61377,1.613776 0.74067,0.269968 1.4803,0.538925 2.21895,0.806888 0.13548,0.135484 0.26996,0.269963 0.40344,0.403444 -1.14211,6.052781 -3.42927,18.154981 -3.42927,18.154981 0,0 -3.09208,11.700876 -4.63961,17.549814 -0.60418,1.009631 -1.20933,2.01822 -1.8155,3.025831 -0.53694,0.202726 -1.07485,0.404444 -1.61377,0.605166 -0.73867,0.06824 -1.4783,0.135481 -2.21895,0.201722 -0.26797,0.001 -0.53692,0.001 -0.80689,0 1.48033,0.740662 4.43789,2.218942 4.43789,2.218942 0,0 0.53892,0.807888 0.80689,1.210332 0.13548,0.606178 0.26996,1.211332 0.40344,1.815498 10e-4,0.875146 10e-4,1.749256 0,2.622392 -0.0662,0.40445 -0.20172,1.21033 -0.20172,1.21033 0,0 1.74926,-0.13348 2.62239,-0.20172 0.40445,0.8079 0.80788,1.61477 1.21033,2.42066 0.0682,0.60618 0.13548,1.21133 0.20172,1.8155 10e-4,0.74066 10e-4,1.48029 0,2.21894 -0.33521,0.4717 -0.67141,0.94237 -1.00861,1.41205 7.86831,-0.13348 23.60147,-0.40344 23.60147,-0.40344 0,0 -0.40244,-2.1507 -0.60516,-3.22755 0.13548,-0.67142 0.26996,-1.34381 0.40344,-2.01722 0.20273,-0.67142 0.40445,-1.34381 0.60517,-2.01722 0.26997,-0.26797 0.53892,-0.53693 0.80689,-0.80689 0.94238,0.0682 2.8241,0.20172 2.8241,0.20172 0,0 -0.13348,-3.092071 -0.20172,-4.639606 0.53894,-0.67142 1.07685,-1.343814 1.61378,-2.01722 0.53893,-0.469694 1.07685,-0.94037 1.61377,-1.412054 0.80791,-0.200726 1.61478,-0.402444 2.42067,-0.605166 -1.41108,-0.469695 -2.82311,-0.94037 -4.23616,-1.412055 -0.60418,-0.940388 -1.20934,-1.881738 -1.8155,-2.824108 -0.60418,-1.545566 -1.20933,-3.09207 -1.8155,-4.639606 -1.07487,-4.571457 -2.1507,-9.143731 -3.22755,-13.717096 -0.40245,-2.688681 -0.80589,-5.378254 -1.21033,-8.068881 -0.33521,-2.419712 -0.67141,-4.840328 -1.00861,-7.261992 -0.26797,-0.805904 -0.80689,-2.420664 -0.80689,-2.420664 0,0 1.48029,-0.133481 2.21894,-0.201722 0.33721,-0.67142 0.67341,-1.343813 1.00861,-2.01722 0.13548,-1.074872 0.26996,-2.150702 0.40344,-3.227552 -0.53693,-0.536936 -1.07485,-1.074851 -1.61377,-1.613776 -0.67142,-0.133484 -2.01722,-0.403444 -2.01722,-0.403444 0,0 10.0861,-14.120541 10.0861,-14.120541 0,0 -9.88438,-6.455104 -9.88438,-6.455104 0,0 -4.84133,-6.253382 -4.84133,-6.253382 0,0 2.21894,-2.420664 2.21894,-2.420664 0,0 7.262,4.437884 7.262,4.437884 0,0 0,-12.1033208 0,-12.1033208 0,0 -6.85855,4.2361618 -6.85855,4.2361618 0,0 -2.82411,-2.01722 -2.82411,-2.01722 0,0 4.63961,-7.261992 4.63961,-7.261992 0,0 -12.30505,0.403444 -12.30505,0.403444 0,0 4.23617,6.4551038 4.23617,6.4551038 z" />
    <path
       style="opacity:1;fill:url(#linearGradient853);fill-opacity:1.0;fill-rule:evenodd;stroke-width:46.2274"
       d="m 80.052653,40.21015 c 0.06668,0.638487 -0.874774,1.445446 -1.816144,2.252334 -0.403443,0.537925 -0.807008,1.076012 -1.042311,2.085031 -0.235304,1.00902 -0.302542,2.488287 -0.26883,3.765947 0.03371,1.277661 0.168189,2.353491 0.471108,3.227644 0.302919,0.874153 0.773594,1.546542 1.278064,2.084321 0.50447,0.537779 1.041266,0.940377 1.579189,1.343821 -0.403443,0.336203 -0.80679,0.672326 -1.243744,0.974859 -0.436954,0.302533 -0.907632,0.571493 -1.210426,1.311683 -0.302794,0.74019 -0.437274,1.950498 -0.167732,2.858287 0.269542,0.907788 0.941939,1.512945 1.547188,1.916143 0.605249,0.403199 1.14316,0.604915 1.377876,1.344821 0.234717,0.739906 0.167478,2.017456 0.100233,3.227795 -0.06724,1.210338 -0.134487,2.353409 -0.168081,3.39568 -0.03359,1.042271 -0.03359,1.983621 -0.269043,3.059249 -0.23545,1.075628 -0.706123,2.285935 -1.143172,3.765347 -0.437049,1.479413 -0.840484,3.227637 -1.143059,4.639729 -0.302575,1.412091 -0.504294,2.487921 -0.706009,3.664664 -0.201715,1.176742 -0.403431,2.45429 -0.537897,3.395691 -0.134466,0.941401 -0.201611,1.545681 -0.268854,2.150847 -1.00861,-0.874129 -2.016154,-1.747333 -2.789574,-2.587734 -0.77342,-0.8404 -1.311334,-1.647276 -1.950223,-2.823977 -0.638889,-1.176701 -1.378522,-2.723209 -1.916573,-4.101662 -0.53805,-1.378453 -0.874247,-2.588762 -1.109653,-3.56378 -0.235405,-0.975018 -0.369886,-1.714651 -0.168339,-2.488383 0.201546,-0.773732 0.73946,-1.580602 1.008501,-2.622461 0.269041,-1.041859 0.269041,-2.319407 0.269041,-3.462508 0,-1.143102 0,-2.151691 0,-2.992206 0,-0.840516 0,-1.512909 0,-2.286185 0,-0.773277 0,-1.648388 0,-2.522517 -0.336203,-0.06724 -0.671256,-0.134251 -1.041081,-0.302086 -0.369826,-0.167834 -0.773264,-0.436794 -1.042701,-0.940918 -0.269436,-0.504125 -0.403917,-1.243757 -0.43771,-1.81547 -0.03379,-0.571712 0.03345,-0.975155 0.403491,-1.379097 0.370045,-0.403941 1.042443,-0.80738 1.547102,-1.009013 0.504659,-0.201632 0.839856,-0.201632 1.176059,-0.201632 0,-0.672407 0,-1.343813 -0.40295,-1.680516 -0.40295,-0.336704 -1.20982,-0.336704 -1.781419,-0.537889 -0.571599,-0.201185 -0.907797,-0.604623 -1.076349,-1.075353 -0.168552,-0.47073 -0.168552,-1.009645 -0.168552,-1.54757 0.403443,0 0.80789,0 1.21124,-0.03369 0.403351,-0.03369 0.806791,-0.100929 1.075266,-0.4367 0.268475,-0.335772 0.402956,-0.940926 0.50386,-1.613257 0.100903,-0.672332 0.168142,-1.411968 6.19e-4,-1.949897 -0.167524,-0.537928 -0.570962,-0.874127 -1.142481,-1.109816 -0.57152,-0.23569 -1.312297,-0.370377 -2.051944,-0.504858 0.06724,-0.403444 0.134345,-0.806077 0.571464,-1.445256 0.43712,-0.63918 1.24399,-1.51329 2.017338,-2.25301 0.773348,-0.739719 1.512984,-1.344877 2.353866,-1.714716 0.840882,-0.369839 1.782232,-0.504318 2.858116,-0.638789 1.075884,-0.134472 2.286194,-0.268951 3.429458,-0.100531 1.143265,0.168419 2.219095,0.639095 2.285772,1.277582 z"
       id="path978"
       inkscape:path-effect="#path-effect980"
       inkscape:original-d="m 81.060619,40.04182 c -0.94037,0.807888 -2.82411,2.420664 -2.82411,2.420664 0,0 -0.80589,1.07685 -1.21033,1.613776 -0.0662,1.480324 -0.13348,2.959589 -0.20172,4.437884 0.13548,1.076872 0.26996,2.152701 0.40344,3.227552 0.4717,0.67342 0.94237,1.345813 1.41206,2.01722 0.53893,0.404452 1.61377,1.210332 1.61377,1.210332 0,0 -0.80589,0.673407 -1.21033,1.00861 -0.46969,0.269968 -0.94037,0.538925 -1.41205,0.806888 -0.13349,1.211356 -0.26797,2.421664 -0.40345,3.630996 0.67342,0.606178 1.34582,1.211332 2.01722,1.815498 0.53894,0.202726 1.07685,0.404444 1.61378,0.605166 -0.0662,1.278598 -0.13348,2.556146 -0.20172,3.832719 -0.0662,1.144114 -0.13348,2.287182 -0.20173,3.429274 0.001,0.942388 0.001,1.883738 0,2.824108 -0.46969,1.211356 -0.94036,2.421664 -1.41205,3.630996 -0.40245,1.749292 -0.80589,3.497515 -1.21033,5.244772 -0.20073,1.076872 -0.40245,2.152702 -0.60517,3.227552 -0.20072,1.278599 -0.40244,2.556146 -0.60516,3.832718 -0.0662,0.606179 -0.20173,1.815498 -0.20173,1.815498 0,0 -2.01622,-1.747257 -3.02583,-2.622386 -0.53693,-0.805904 -1.07485,-1.612776 -1.61377,-2.420664 -0.73866,-1.545566 -1.4783,-3.092071 -2.21894,-4.639606 -0.33521,-1.209356 -0.67141,-2.419664 -1.00861,-3.630996 -0.13349,-0.738662 -0.26797,-1.478295 -0.40345,-2.218942 0.53894,-0.805904 1.07685,-1.612776 1.61378,-2.420664 0.001,-1.276598 0.001,-2.554146 0,-3.832718 0.001,-1.007631 0.001,-2.01622 0,-3.02583 0.001,-0.671421 0.001,-1.343814 0,-2.017221 0.001,-0.873146 0,-2.622386 0,-2.622386 0,0 -0.67141,-0.133481 -1.00861,-0.201722 -0.40245,-0.267968 -0.80589,-0.536925 -1.21033,-0.806888 -0.13349,-0.738662 -0.26797,-1.478294 -0.40345,-2.218942 0.0682,-0.402452 0.13548,-0.805888 0.20172,-1.210332 0.67342,-0.402452 1.34582,-0.805888 2.01722,-1.210332 0.33721,0.001 1.00861,0 1.00861,0 0,0 0.001,-1.343813 0,-2.01722 -0.8059,10e-4 -1.61277,10e-4 -2.42066,0 -0.33521,-0.402452 -0.67141,-0.805888 -1.00861,-1.210332 0.001,-0.536936 0,-1.613776 0,-1.613776 0,0 0.80789,10e-4 1.21033,0 0.40445,-0.06624 0.80789,-0.133481 1.21033,-0.201722 0.13549,-0.604178 0.26997,-1.209332 0.40345,-1.815498 0.0682,-0.738662 0.13548,-1.478295 0.20172,-2.218942 -0.40245,-0.33521 -0.80589,-0.671407 -1.21033,-1.00861 -0.73866,-0.133484 -2.21894,-0.403444 -2.21894,-0.403444 0,0 0.13548,-0.805888 0.20172,-1.210332 0.8079,-0.873147 1.61477,-1.747258 2.42066,-2.622386 0.74066,-0.604179 1.4803,-1.209332 2.21894,-1.815499 0.94239,-0.133484 1.88374,-0.267962 2.82411,-0.403444 1.21136,-0.133484 2.42167,-0.267962 3.631,-0.403444 1.07687,0.471695 2.1527,0.94237 3.22755,1.412055 z" />
    <path
       style="opacity:1;fill:url(#linearGradient855);fill-opacity:1.0;fill-rule:evenodd;stroke-width:46.2274"
       d="m 83.279555,53.557194 c 0,0 0,0 -0.53742,-0.503831 -0.537419,-0.503832 -1.613249,-1.512422 -2.185284,-2.689106 -0.572035,-1.176684 -0.639274,-2.521473 -0.538535,-3.597555 0.100738,-1.076082 0.369696,-1.882955 0.806795,-2.723668 0.4371,-0.840713 1.042253,-1.714822 1.983866,-2.521915 0.941612,-0.807092 2.219153,-1.546723 3.59787,-2.017376 1.378716,-0.470654 2.857976,-0.672371 4.13574,-0.571223 1.277764,0.101149 2.353593,0.504586 3.362057,1.278183 1.008464,0.773597 1.949814,1.916665 2.655678,2.992584 0.705864,1.075918 1.176539,2.084511 1.4116,3.193891 0.23506,1.10938 0.23506,2.319688 -0.03399,3.327923 -0.269045,1.008235 -0.806957,1.815105 -1.344837,2.521053 -0.53788,0.705948 -1.075793,1.3111 -1.412064,1.84933 -0.336272,0.53823 -0.47075,1.008905 -0.167473,1.344942 0.303277,0.336037 1.042907,0.537755 1.647854,1.008867 0.604948,0.471112 1.075624,1.210748 1.209631,1.882878 0.134006,0.67213 -0.06771,1.277281 -0.672638,1.882065 -0.604925,0.604783 -1.613512,1.209938 -2.319389,1.579752 -0.705876,0.369814 -1.109316,0.504294 -1.008636,2.118776 0.100681,1.614482 0.705832,4.707492 1.17647,7.699705 0.470637,2.992214 0.806833,5.883505 1.243986,8.40509 0.437153,2.521584 0.975068,4.673241 1.546672,6.65687 0.571604,1.983629 1.176756,3.799093 1.647363,5.513725 0.470607,1.714632 0.806564,3.327218 1.142764,4.940994 1.4793,-0.134481 2.95949,-0.269044 3.867,0.168671 0.9075,0.437715 1.2437,1.446303 1.47895,2.286794 0.23526,0.840487 0.36974,1.512887 0.36954,2.151477 -2e-4,0.63858 -0.13451,1.24299 -0.26899,1.84816 0.87413,1.07585 1.74914,2.1528 2.18576,2.95964 0.43662,0.80685 0.43662,1.34476 0.20144,1.74762 -0.23519,0.40285 -0.70586,0.67181 -0.77276,0.80639 -0.0669,0.13457 0.2683,0.13457 0.6045,0.13457 0,0 -6.85855,0 -6.85855,0 0,0 -31.872065,0.20172 -31.872065,0.20172 -0.470687,-0.47069 -0.94037,-0.94037 -0.974591,-1.68027 -0.03422,-0.7399 0.369217,-1.74849 0.739295,-2.35401 0.370078,-0.60551 0.706272,-0.80722 1.210882,-0.94166 0.504611,-0.13444 1.177005,-0.20168 1.647828,-0.20149 0.470823,1.9e-4 0.738616,0.0671 1.007576,0.13438 -0.26896,-1.21033 -0.537662,-2.41951 -0.672271,-3.46182 -0.134609,-1.042322 -0.134609,-1.916434 -0.134609,-2.521603 0,-0.605169 0,-0.941366 0.168166,-1.2445 0.168166,-0.303135 0.504359,-0.572089 0.975357,-0.773847 0.470998,-0.201758 1.076158,-0.336238 1.849623,-0.336074 0.773464,1.64e-4 1.714814,0.134643 2.319924,0.201803 0.60511,0.06716 0.873067,0.06716 1.14203,0.06716 1.00861,-4.437884 2.017053,-8.875034 2.723097,-12.237058 0.706043,-3.362024 1.109479,-5.648162 1.344878,-7.967902 0.235399,-2.31974 0.302637,-4.673117 0.504293,-6.589609 0.201655,-1.916492 0.537852,-3.395758 0.739626,-4.606003 0.201774,-1.210245 0.269017,-2.151598 -0.133801,-2.824194 -0.402818,-0.672595 -1.276928,-1.07603 -2.083843,-1.513006 -0.806916,-0.436976 -1.546546,-0.907651 -1.816183,-1.512856 -0.269638,-0.605206 -0.06792,-1.344839 0.436785,-1.849586 0.504708,-0.504747 1.311578,-0.773703 1.916564,-1.042645 0.604985,-0.268942 1.008191,-0.537746 1.411634,-0.806709 0,0 -0.60517,-1.815498 -0.60517,-1.815498 z"
       id="path1023"
       inkscape:path-effect="#path-effect1025"
       inkscape:original-d="m 83.279555,53.557194 c 0,0 0.001,10e-4 0,0 -1.07487,-1.00763 -2.1507,-2.01622 -3.22755,-3.02583 -0.0662,-1.34384 -0.13348,-2.688627 -0.20172,-4.03444 0.26997,-0.805904 0.53893,-1.612776 0.80689,-2.420664 0.60618,-0.873147 1.21133,-1.747258 1.8155,-2.622386 1.2786,-0.738663 2.55614,-1.478295 3.83271,-2.218943 1.48033,-0.200726 2.95959,-0.402444 4.43789,-0.605166 1.07687,0.404453 2.1527,0.807888 3.22755,1.210333 0.94239,1.144114 1.88374,2.287182 2.824107,3.429274 0.47169,1.00963 0.94237,2.01822 1.41205,3.02583 0.001,1.211356 0.001,2.421664 0,3.630996 -0.53694,0.807904 -1.07485,1.614776 -1.61377,2.420664 -0.536937,0.606178 -1.074847,1.211332 -1.613777,1.815498 -0.13348,0.471694 -0.26796,0.942369 -0.40344,1.412054 0.74066,0.202726 1.48029,0.404444 2.218937,0.605166 0.47169,0.740662 0.94237,1.480295 1.41205,2.218942 -0.20073,0.606178 -0.40244,1.211332 -0.60517,1.815498 -1.00762,0.606178 -2.016207,1.211332 -3.025817,1.815498 -0.40245,0.135484 -0.80589,0.269963 -1.21033,0.403444 0.60617,3.094133 1.21133,6.187142 1.81549,9.279213 0.33721,2.892406 0.67341,5.783697 1.008607,8.674046 0.53894,2.152745 1.07685,4.304403 1.61378,6.455104 0.60617,1.816535 1.21133,3.631996 1.81549,5.446495 0.33721,1.614808 1.008608,4.841328 1.008608,4.841328 0,0 2.95959,-0.267963 4.43789,-0.403444 0.33721,1.00963 0.6734,2.01822 1.00861,3.02583 0.13548,0.673416 0.26996,1.345816 0.40344,2.017216 -0.13348,0.60618 -0.40344,1.8155 -0.40344,1.8155 0,0 1.74926,2.1527 2.62238,3.22755 10e-4,0.53894 10e-4,1.07685 0,1.61378 -0.46969,0.26997 -0.94037,0.53892 -1.41205,0.80689 0.33721,10e-4 1.00861,0 1.00861,0 0,0 -6.85855,0 -6.85855,0 0,0 -31.872065,0.20172 -31.872065,0.20172 0,0 -0.94037,-0.94037 -1.41206,-1.41206 0.40446,-1.00763 0.80789,-2.01622 1.21034,-3.02583 0.33721,-0.20072 0.6734,-0.40244 1.00861,-0.60516 0.67342,-0.0662 1.34581,-0.13348 2.01722,-0.20172 0.26996,0.0682 0.80688,0.20172 0.80688,0.20172 0,0 -0.53692,-2.41967 -0.80688,-3.631 0.001,-0.873142 0.001,-1.747254 0,-2.622382 0.001,-0.33521 0.001,-0.671407 0,-1.00861 0.33721,-0.267968 0.6734,-0.536926 1.00861,-0.806888 0.60617,-0.133484 1.21133,-0.267963 1.81549,-0.403444 0.94239,0.135484 1.88374,0.269962 2.82411,0.403444 0.26997,0.001 0.80689,0 0.80689,0 0,0 2.01822,-8.874769 3.02583,-13.313653 0.40445,-2.285228 0.80789,-4.571365 1.21033,-6.858548 0.0682,-2.352471 0.13548,-4.705847 0.20172,-7.06027 0.33721,-1.478325 0.67341,-2.95759 1.00861,-4.437885 0.0682,-0.940388 0.13549,-1.881738 0.20173,-2.824108 -0.87315,-0.402452 -1.74726,-0.805888 -2.62239,-1.210332 -0.73866,-0.469694 -1.47829,-0.940369 -2.21894,-1.412054 0.20272,-0.738662 0.40444,-1.478294 0.60516,-2.218942 0.80791,-0.267968 1.61478,-0.536925 2.42067,-0.806888 0.40445,-0.267968 1.21033,-0.806888 1.21033,-0.806888 0,0 -0.60517,-1.815498 -0.60517,-1.815498 z" />
    <path
       style="opacity:1;fill:url(#linearGradient857);fill-opacity:1.0;fill-rule:evenodd;stroke-width:46.2274"
       d="m 32.034038,40.474963 c -0.06668,0.638487 0.874774,1.445446 1.816144,2.252334 0.403443,0.537925 0.807008,1.076012 1.042311,2.085031 0.235304,1.00902 0.302542,2.488287 0.26883,3.765947 -0.03371,1.277661 -0.168189,2.353491 -0.471108,3.227644 -0.302919,0.874153 -0.773594,1.546542 -1.278064,2.084321 -0.50447,0.537779 -1.041266,0.940377 -1.579189,1.343821 0.403443,0.336203 0.80679,0.672326 1.243744,0.974859 0.436954,0.302533 0.907632,0.571493 1.210426,1.311683 0.302794,0.74019 0.437274,1.950498 0.167732,2.858287 -0.269542,0.907788 -0.941939,1.512945 -1.547188,1.916143 -0.605249,0.403199 -1.14316,0.604915 -1.377876,1.344821 -0.234717,0.739906 -0.167478,2.017456 -0.100233,3.227795 0.06724,1.210338 0.134487,2.353409 0.168081,3.39568 0.03359,1.042271 0.03359,1.983621 0.269043,3.059249 0.23545,1.075628 0.706123,2.285935 1.143172,3.765347 0.437049,1.479413 0.840484,3.227637 1.143059,4.639729 0.302575,1.412091 0.504294,2.487921 0.706009,3.664664 0.201715,1.176742 0.403431,2.45429 0.537897,3.395691 0.134466,0.941401 0.201611,1.545681 0.268854,2.150847 1.00861,-0.874129 2.016154,-1.747333 2.789574,-2.587734 0.77342,-0.8404 1.311334,-1.647276 1.950223,-2.823977 0.638889,-1.176701 1.378522,-2.723209 1.916573,-4.101662 0.53805,-1.378453 0.874247,-2.588762 1.109653,-3.56378 0.235405,-0.975018 0.369886,-1.714651 0.168339,-2.488383 -0.201546,-0.773732 -0.73946,-1.580602 -1.008501,-2.622461 -0.269041,-1.041859 -0.269041,-2.319407 -0.269041,-3.462508 0,-1.143102 0,-2.151691 0,-2.992206 0,-0.840516 0,-1.512909 0,-2.286185 0,-0.773277 0,-1.648388 0,-2.522517 0.336203,-0.06724 0.671256,-0.134251 1.041081,-0.302086 0.369826,-0.167834 0.773264,-0.436794 1.042701,-0.940918 0.269436,-0.504125 0.403917,-1.243757 0.43771,-1.81547 0.03379,-0.571712 -0.03345,-0.975155 -0.403491,-1.379097 -0.370045,-0.403941 -1.042443,-0.80738 -1.547102,-1.009013 -0.504659,-0.201632 -0.839856,-0.201632 -1.176059,-0.201632 0,-0.672407 0,-1.343813 0.40295,-1.680516 0.40295,-0.336704 1.20982,-0.336704 1.781419,-0.537889 0.571599,-0.201185 0.907797,-0.604623 1.076349,-1.075353 0.168552,-0.47073 0.168552,-1.009645 0.168552,-1.54757 -0.403443,0 -0.80789,0 -1.21124,-0.03369 -0.403351,-0.03369 -0.806791,-0.100929 -1.075266,-0.4367 -0.268475,-0.335772 -0.402956,-0.940926 -0.50386,-1.613257 -0.100903,-0.672332 -0.168142,-1.411968 -6.19e-4,-1.949897 0.167524,-0.537928 0.570962,-0.874127 1.142481,-1.109816 0.57152,-0.23569 1.312297,-0.370377 2.051944,-0.504858 -0.06724,-0.403444 -0.134345,-0.806077 -0.571464,-1.445256 -0.43712,-0.63918 -1.24399,-1.51329 -2.017338,-2.25301 -0.773348,-0.739719 -1.512984,-1.344877 -2.353866,-1.714716 -0.840882,-0.369839 -1.782232,-0.504318 -2.858116,-0.638789 -1.075884,-0.134472 -2.286194,-0.268951 -3.429458,-0.100531 -1.143265,0.168419 -2.219095,0.639095 -2.285772,1.277582 z"
       id="path978-4"
       inkscape:path-effect="#path-effect980-0"
       inkscape:original-d="m 31.026072,40.306633 c 0.94037,0.807888 2.82411,2.420664 2.82411,2.420664 0,0 0.80589,1.07685 1.21033,1.613776 0.0662,1.480324 0.13348,2.959589 0.20172,4.437884 -0.13548,1.076872 -0.26996,2.152701 -0.40344,3.227552 -0.4717,0.67342 -0.94237,1.345813 -1.41206,2.01722 -0.53893,0.404452 -1.61377,1.210332 -1.61377,1.210332 0,0 0.80589,0.673407 1.21033,1.00861 0.46969,0.269968 0.94037,0.538925 1.41205,0.806888 0.13349,1.211356 0.26797,2.421664 0.40345,3.630996 -0.67342,0.606178 -1.34582,1.211332 -2.01722,1.815498 -0.53894,0.202726 -1.07685,0.404444 -1.61378,0.605166 0.0662,1.278598 0.13348,2.556146 0.20172,3.832719 0.0662,1.144114 0.13348,2.287182 0.20173,3.429274 -0.001,0.942388 -0.001,1.883738 0,2.824108 0.46969,1.211356 0.94036,2.421664 1.41205,3.630996 0.40245,1.749292 0.80589,3.497515 1.21033,5.244772 0.20073,1.076872 0.40245,2.152702 0.60517,3.227552 0.20072,1.278599 0.40244,2.556146 0.60516,3.832718 0.0662,0.606179 0.20173,1.815498 0.20173,1.815498 0,0 2.01622,-1.747257 3.02583,-2.622386 0.53693,-0.805904 1.07485,-1.612776 1.61377,-2.420664 0.73866,-1.545566 1.4783,-3.092071 2.21894,-4.639606 0.33521,-1.209356 0.67141,-2.419664 1.00861,-3.630996 0.13349,-0.738662 0.26797,-1.478295 0.40345,-2.218942 -0.53894,-0.805904 -1.07685,-1.612776 -1.61378,-2.420664 -10e-4,-1.276598 -10e-4,-2.554146 0,-3.832718 -10e-4,-1.007631 -10e-4,-2.01622 0,-3.02583 -10e-4,-0.671421 -10e-4,-1.343814 0,-2.017221 -10e-4,-0.873146 0,-2.622386 0,-2.622386 0,0 0.67141,-0.133481 1.00861,-0.201722 0.40245,-0.267968 0.80589,-0.536925 1.21033,-0.806888 0.13349,-0.738662 0.26797,-1.478294 0.40345,-2.218942 -0.0682,-0.402452 -0.13548,-0.805888 -0.20172,-1.210332 -0.67342,-0.402452 -1.34582,-0.805888 -2.01722,-1.210332 -0.33721,10e-4 -1.00861,0 -1.00861,0 0,0 -0.001,-1.343813 0,-2.01722 0.8059,10e-4 1.61277,10e-4 2.42066,0 0.33521,-0.402452 0.67141,-0.805888 1.00861,-1.210332 -10e-4,-0.536936 0,-1.613776 0,-1.613776 0,0 -0.80789,0.001 -1.21033,0 -0.40445,-0.06624 -0.80789,-0.133481 -1.21033,-0.201722 -0.13549,-0.604178 -0.26997,-1.209332 -0.40345,-1.815498 -0.0682,-0.738662 -0.13548,-1.478295 -0.20172,-2.218942 0.40245,-0.33521 0.80589,-0.671407 1.21033,-1.00861 0.73866,-0.133484 2.21894,-0.403444 2.21894,-0.403444 0,0 -0.13548,-0.805888 -0.20172,-1.210332 -0.8079,-0.873147 -1.61477,-1.747258 -2.42066,-2.622386 -0.74066,-0.604179 -1.4803,-1.209332 -2.21894,-1.815499 -0.94239,-0.133484 -1.88374,-0.267962 -2.82411,-0.403444 -1.21136,-0.133484 -2.42167,-0.267962 -3.631,-0.403444 -1.07687,0.471695 -2.1527,0.94237 -3.22755,1.412055 z" />
    <path
       style="opacity:1;fill:url(#linearGradient859);fill-opacity:1.0;fill-rule:evenodd;stroke-width:46.2274"
       d="m 29.412302,53.418563 c 0,0 0,0 0.53742,-0.503831 0.537419,-0.503832 1.613249,-1.512422 2.185284,-2.689106 0.572035,-1.176684 0.639274,-2.521473 0.538535,-3.597555 -0.100738,-1.076082 -0.369696,-1.882955 -0.806795,-2.723668 -0.4371,-0.840713 -1.042253,-1.714822 -1.983866,-2.521915 -0.941612,-0.807092 -2.219153,-1.546723 -3.59787,-2.017376 -1.378716,-0.470654 -2.857976,-0.672371 -4.13574,-0.571223 -1.277764,0.101149 -2.353593,0.504586 -3.362058,1.278182 -1.008464,0.773597 -1.949815,1.916665 -2.655679,2.992584 -0.705865,1.075919 -1.17654,2.084512 -1.411601,3.193892 -0.23506,1.10938 -0.23506,2.319688 0.03398,3.327923 0.269045,1.008235 0.806957,1.815105 1.344838,2.521054 0.537881,0.705948 1.075794,1.311099 1.412066,1.849329 0.336272,0.53823 0.47075,1.008905 0.167473,1.344942 -0.303277,0.336037 -1.042907,0.537754 -1.647856,1.008867 -0.604949,0.471112 -1.075625,1.210748 -1.209632,1.882878 -0.134006,0.67213 0.06771,1.277281 0.672638,1.882064 0.604926,0.604784 1.613515,1.209939 2.319391,1.579753 0.705877,0.369814 1.109317,0.504294 1.008637,2.118776 -0.100681,1.614482 -0.705832,4.707492 -1.17647,7.699705 -0.470638,2.992213 -0.806835,5.883505 -1.243988,8.405089 -0.437154,2.521585 -0.975069,4.673242 -1.546673,6.656871 -0.571604,1.983629 -1.176756,3.799093 -1.647363,5.513725 -0.470607,1.714632 -0.806563,3.327218 -1.142766,4.940994 -1.479297,-0.134481 -2.9594914,-0.269044 -3.8669955,0.168671 -0.9075042,0.437715 -1.2437002,1.446303 -1.4789587,2.286794 -0.2352584,0.840488 -0.3697374,1.512888 -0.3695377,2.151478 1.997e-4,0.63858 0.1345122,1.24299 0.2689922,1.84816 -0.8741267,1.07585 -1.749143,2.1528 -2.1857615,2.95964 -0.4366185,0.80685 -0.4366185,1.34476 -0.2014344,1.74762 0.2351841,0.40285 0.7058591,0.67181 0.7727575,0.80639 0.066898,0.13457 -0.2682983,0.13457 -0.6045016,0.13457 0,0 6.8585497,0 6.8585497,0 0,0 31.87207,0.20172 31.87207,0.20172 0.470687,-0.47069 0.94037,-0.94037 0.974591,-1.68027 0.03422,-0.7399 -0.369217,-1.74849 -0.739295,-2.35401 -0.370078,-0.60551 -0.706272,-0.80722 -1.210882,-0.94166 -0.504611,-0.13444 -1.177005,-0.20168 -1.647828,-0.20149 -0.470823,1.9e-4 -0.738616,0.0671 -1.007576,0.13438 0.26896,-1.21033 0.537662,-2.41951 0.672271,-3.46182 0.134609,-1.042323 0.134609,-1.916435 0.134609,-2.521604 0,-0.605169 0,-0.941366 -0.168166,-1.2445 -0.168166,-0.303135 -0.504359,-0.572089 -0.975357,-0.773847 -0.470998,-0.201758 -1.076158,-0.336238 -1.849623,-0.336074 -0.773464,1.64e-4 -1.714814,0.134643 -2.319924,0.201803 -0.60511,0.06716 -0.873067,0.06716 -1.14203,0.06716 -1.00861,-4.437884 -2.017053,-8.875034 -2.723097,-12.237058 -0.706043,-3.362024 -1.109479,-5.648162 -1.344878,-7.967902 -0.235399,-2.31974 -0.302637,-4.673117 -0.504293,-6.589609 -0.201655,-1.916492 -0.537852,-3.395758 -0.739626,-4.606003 -0.201774,-1.210245 -0.269017,-2.151598 0.133801,-2.824194 0.402818,-0.672595 1.276928,-1.07603 2.083843,-1.513006 0.806916,-0.436976 1.546546,-0.907651 1.816183,-1.512856 0.269638,-0.605206 0.06792,-1.344839 -0.436785,-1.849586 -0.504708,-0.504747 -1.311578,-0.773703 -1.916564,-1.042645 -0.604985,-0.268942 -1.008191,-0.537746 -1.411634,-0.806709 0,0 0.60517,-1.815498 0.60517,-1.815498 z"
       id="path1023-9"
       inkscape:path-effect="#path-effect1025-1"
       inkscape:original-d="m 29.412302,53.418563 c 0,0 -0.001,10e-4 0,0 1.07487,-1.00763 2.1507,-2.01622 3.22755,-3.02583 0.0662,-1.34384 0.13348,-2.688627 0.20172,-4.03444 -0.26997,-0.805904 -0.53893,-1.612776 -0.80689,-2.420664 -0.60618,-0.873147 -1.21133,-1.747258 -1.8155,-2.622386 -1.2786,-0.738663 -2.55614,-1.478295 -3.83271,-2.218943 -1.48033,-0.200726 -2.95959,-0.402444 -4.43789,-0.605166 -1.07687,0.404453 -2.1527,0.807888 -3.22755,1.210333 -0.94239,1.144114 -1.88374,2.287182 -2.82411,3.429274 -0.47169,1.00963 -0.94237,2.01822 -1.41205,3.02583 -10e-4,1.211356 -10e-4,2.421664 0,3.630996 0.53694,0.807904 1.07485,1.614776 1.61377,2.420664 0.53694,0.606178 1.07485,1.211332 1.61378,1.815498 0.13348,0.471694 0.26796,0.942369 0.40344,1.412054 -0.74066,0.202726 -1.48029,0.404444 -2.21894,0.605166 -0.47169,0.740662 -0.94237,1.480295 -1.41205,2.218942 0.20073,0.606178 0.40244,1.211332 0.60517,1.815498 1.00762,0.606178 2.01621,1.211332 3.02582,1.815498 0.40245,0.135484 0.80589,0.269963 1.21033,0.403444 -0.60617,3.094133 -1.21133,6.187142 -1.81549,9.279213 -0.33721,2.892406 -0.67341,5.783697 -1.00861,8.674046 -0.53894,2.152745 -1.07685,4.304403 -1.61378,6.455104 -0.60617,1.816535 -1.21133,3.631996 -1.81549,5.446495 -0.33721,1.614808 -1.00861,4.841328 -1.00861,4.841328 0,0 -2.9595897,-0.267963 -4.4378897,-0.403444 -0.33721,1.00963 -0.6734,2.01822 -1.00861,3.02583 -0.13548,0.673417 -0.26996,1.345817 -0.40344,2.017217 0.13348,0.60618 0.40344,1.8155 0.40344,1.8155 0,0 -1.74926,2.1527 -2.62238,3.22755 -10e-4,0.53894 -10e-4,1.07685 0,1.61378 0.46969,0.26997 0.94037,0.53892 1.41205,0.80689 -0.33721,0.001 -1.00861,0 -1.00861,0 0,0 6.8585497,0 6.8585497,0 0,0 31.87207,0.20172 31.87207,0.20172 0,0 0.94037,-0.94037 1.41206,-1.41206 -0.40446,-1.00763 -0.80789,-2.01622 -1.21034,-3.02583 -0.33721,-0.20072 -0.6734,-0.40244 -1.00861,-0.60516 -0.67342,-0.0662 -1.34581,-0.13348 -2.01722,-0.20172 -0.26996,0.0682 -0.80688,0.20172 -0.80688,0.20172 0,0 0.53692,-2.41967 0.80688,-3.631 -10e-4,-0.873143 -10e-4,-1.747255 0,-2.622383 -10e-4,-0.33521 -10e-4,-0.671407 0,-1.00861 -0.33721,-0.267968 -0.6734,-0.536926 -1.00861,-0.806888 -0.60617,-0.133484 -1.21133,-0.267963 -1.81549,-0.403444 -0.94239,0.135484 -1.88374,0.269962 -2.82411,0.403444 -0.26997,0.001 -0.80689,0 -0.80689,0 0,0 -2.01822,-8.874769 -3.02583,-13.313653 -0.40445,-2.285228 -0.80789,-4.571365 -1.21033,-6.858548 -0.0682,-2.352471 -0.13548,-4.705847 -0.20172,-7.06027 -0.33721,-1.478325 -0.67341,-2.95759 -1.00861,-4.437885 -0.0682,-0.940388 -0.13549,-1.881738 -0.20173,-2.824108 0.87315,-0.402452 1.74726,-0.805888 2.62239,-1.210332 0.73866,-0.469694 1.47829,-0.940369 2.21894,-1.412054 -0.20272,-0.738662 -0.40444,-1.478294 -0.60516,-2.218942 -0.80791,-0.267968 -1.61478,-0.536925 -2.42067,-0.806888 -0.40445,-0.267968 -1.21033,-0.806888 -1.21033,-0.806888 0,0 0.60517,-1.815498 0.60517,-1.815498 z" />
  </g>
</svg>
