<?xml version="1.0" standalone="no"?><svg xmlns="http://www.w3.org/2000/svg" viewBox="0 0 1440 320"><path fill="#acdeff" fill-opacity="1" d="M0,224L40,234.7C80,245,160,267,240,240C320,213,400,139,480,112C560,85,640,107,720,122.7C800,139,880,149,960,176C1040,203,1120,245,1200,256C1280,267,1360,245,1400,234.7L1440,224L1440,320L1400,320C1360,320,1280,320,1200,320C1120,320,1040,320,960,320C880,320,800,320,720,320C640,320,560,320,480,320C400,320,320,320,240,320C160,320,80,320,40,320L0,320Z"></path></svg>