<svg width="267" height="159" xmlns="http://www.w3.org/2000/svg">
 <g>
  <path id="signature" d="m54,104c0,1 0,2 1,2c2,0 5.8769,0.12311 10,-4c4.12311,-4.12311 5,-10 5,-15c0,-3 -1,-5 -2,-5c-2,0 
  -4.70711,0.29289 -4,1c1.41422,1.41422 4.50433,1.40601 9,-1c3.74063,-2.00192 4.70711,-5.29289 4,-6c-0.70711,-0.70711 -2,0 
  -2,1c0,1 1.00372,3.14944 4,3c10.0374,-0.50062 15.41589,-3.76108 17,-7c1.38935,-2.84072 1.30656,-5.4588 0,-6c-0.92388,-0.38268 
  -2.23463,0.15224 -3,2c-0.5412,1.30656 -0.98491,2.42533 5,2c7.05328,-0.50126 14.03487,-4.95846 20,-10c7.0415,-5.95125 16.88446,
  -16.49559 24,-30c4.59109,-8.71331 6.85065,-12.47427 6,-13c-1.90211,-1.17557 -3,3 -4,5c-5,10 -14,26 -28,50c-14,24 -31.75493,50.03876 
  -41,69c-3.74448,7.67976 -4,11 -3,11c1,0 2.0775,0.55136 4,0c9.06841,-2.60078 18.80289,-10.24756 30,-23c10.82146,-12.32462 16.86168,
  -22.17841 15,-29c-1.68582,-6.17722 -14.97594,-9.57069 -29,-9c-13.14207,0.5348 -25.95065,6.40592 -23,12c3.39645,6.43926 31.17262,5.51611
   64,2c27.30289,-2.92439 49.69952,-8.40347 60,-17c3.83876,-3.20374 -0.68356,-9.81113 -30,-14c-49.65543,-7.09499 -96.8207,-9.03546 -126,
   -1c-7.34245,2.02198 0,5 38,7l56,1l59,-1l49,-6" id="svg_100" stroke-width="3" stroke="#000" fill="none"/>
 </g>
</svg>